<?xml version="1.0" encoding="UTF-8"?>
<svg width="147px" height="428px" viewBox="0 0 147 428" version="1.1" xmlns="http://www.w3.org/2000/svg" xmlns:xlink="http://www.w3.org/1999/xlink">
    <!-- Generator: Sketch 52.2 (67145) - http://www.bohemiancoding.com/sketch -->
    <title>carrot</title>
    <desc>Created with Sketch.</desc>
    <defs>
        <linearGradient x1="50%" y1="0%" x2="50%" y2="100%" id="linearGradient-1">
            <stop stop-color="#FFD01F" offset="0%"></stop>
            <stop stop-color="#FFA40D" offset="100%"></stop>
        </linearGradient>
        <linearGradient x1="50%" y1="0%" x2="50%" y2="100%" id="linearGradient-2">
            <stop stop-color="#B4EC51" offset="0%"></stop>
            <stop stop-color="#429321" offset="100%"></stop>
        </linearGradient>
    </defs>
    <g id="carrot" stroke="none" stroke-width="1" fill="none" fill-rule="evenodd">
        <g id="Group-2" transform="translate(14.000000, 13.000000)">
            <path d="M61.3586471,143 C88.3586471,143 142.358647,364.747526 115.358647,386.185882 C88.3586471,407.624237 34.3586471,407.624237 7.35864712,386.185882 C-19.6413529,364.747526 34.3586471,143 61.3586471,143 Z" id="Triangle" fill="url(#linearGradient-1)" transform="translate(61.358647, 272.632324) rotate(-180.000000) translate(-61.358647, -272.632324) "></path>
            <g id="Group" transform="translate(18.000000, 0.000000)" fill="url(#linearGradient-2)">
                <path d="M29.125,25.0855263 C35.375,-8.36184211 47.875,-8.36184211 54.125,25.0855263 C58.0419446,46.0473647 58.2767,86.7147295 54.8292661,147.087621 L54.829264,147.087621 C54.4514776,153.703572 48.9763245,158.875 42.3495957,158.875 L40.9004024,158.874998 C34.2736734,158.874998 28.7985201,153.70357 28.4207337,147.087618 C24.9733,86.7147284 25.2080554,46.0473644 29.125,25.0855263 Z" id="Rectangle"></path>
                <path d="M44.1826289,52.5982398 C50.4326289,23.1508714 62.9326289,23.1508714 69.1826289,52.5982398 C73.0669807,70.89967 73.3301671,106.262507 69.9721882,158.68675 L69.9721886,158.68675 C69.5507235,165.266597 64.0910847,170.387714 57.4977527,170.387714 L55.8675085,170.387717 C49.2741749,170.387717 43.8145347,165.2666 43.3930695,158.68675 C40.0350906,106.262507 40.298277,70.8996701 44.1826289,52.5982398 Z" id="Rectangle-Copy" transform="translate(56.682629, 100.450214) rotate(11.000000) translate(-56.682629, -100.450214) "></path>
                <path d="M18.7065572,54.5515936 C24.9565572,25.1042252 37.4565572,25.1042252 43.7065572,54.5515936 C47.590909,72.8530238 47.8540954,108.21586 44.4961165,160.640104 L44.4961169,160.640104 C44.0746518,167.219951 38.615013,172.341067 32.0216811,172.341067 L30.3914368,172.341071 C23.7981032,172.341071 18.3384631,167.219953 17.9169978,160.640104 C14.5590189,108.215861 14.8222053,72.8530239 18.7065572,54.5515936 Z" id="Rectangle-Copy-2" transform="translate(31.206557, 102.403567) rotate(-13.000000) translate(-31.206557, -102.403567) "></path>
            </g>
        </g>
    </g>
</svg>