<?xml version="1.0" encoding="UTF-8"?>
<svg width="219px" height="40px" viewBox="0 0 219 40" version="1.1" xmlns="http://www.w3.org/2000/svg" xmlns:xlink="http://www.w3.org/1999/xlink">
    <!-- Generator: Sketch 52.2 (67145) - http://www.bohemiancoding.com/sketch -->
    <title>Artboard</title>
    <desc>Created with Sketch.</desc>
    <g id="Artboard" stroke="none" stroke-width="1" fill="none" fill-rule="evenodd">
        <g id="Imported-Layers-Copy-2" transform="translate(7.000000, 6.000000)" fill="#000000">
            <path d="M0,14.5804461 L0,14.5003338 C0,6.76949285 5.68588636,0 14.0392175,0 C22.3925487,0 28,6.69004811 28,14.4202215 L28,14.5003338 C28,22.2305071 22.3141136,29 13.9614361,29 C5.60745133,29 0,22.3106195 0,14.5804461 L0,14.5804461 Z M24.7841636,14.5804461 L24.7841636,14.5003338 C24.7841636,8.13140266 20.2355852,2.92410046 13.9614361,2.92410046 C7.68663336,2.92410046 3.21583641,8.05129032 3.21583641,14.4202215 L3.21583641,14.5003338 C3.21583641,20.8685973 7.76441477,26.0758995 14.0392175,26.0758995 C20.3133666,26.0758995 24.7841636,20.9487097 24.7841636,14.5804461 L24.7841636,14.5804461 Z" id="Fill-1"></path>
            <path d="M39,1.5994095 C39,0.720034287 39.7317271,0 40.5854088,0 L48.8783165,0 C57.8209708,0 64,6.03962093 64,13.9199962 L64,14 C64,21.8797086 57.8209708,28 48.8783165,28 L40.5854088,28 C39.7317271,28 39,27.2799657 39,26.3992571 L39,1.5994095 L39,1.5994095 Z M48.8783165,25.0798609 C56.0729559,25.0798609 60.6665763,20.2802991 60.6665763,14.0800038 L60.6665763,14 C60.6665763,7.79970475 56.0729559,2.92013905 48.8783165,2.92013905 L42.2114691,2.92013905 L42.2114691,25.0798609 L48.8783165,25.0798609 L48.8783165,25.0798609 Z" id="Fill-2"></path>
            <path d="M73,14.5804461 L73,14.5003338 C73,6.76949285 78.6860191,0 87.0388916,0 C95.3924178,0 101,6.69004811 101,14.4202215 L101,14.5003338 C101,22.2305071 95.3139809,29 86.9611084,29 C78.6075822,29 73,22.3106195 73,14.5804461 L73,14.5804461 Z M97.7840885,14.5804461 L97.7840885,14.5003338 C97.7840885,8.13140266 93.235404,2.92410046 86.9611084,2.92410046 C80.6861592,2.92410046 76.2152578,8.05129032 76.2152578,14.4202215 L76.2152578,14.5003338 C76.2152578,20.8685973 80.7639424,26.0758995 87.0388916,26.0758995 C93.3138408,26.0758995 97.7840885,20.9487097 97.7840885,14.5804461 L97.7840885,14.5804461 Z" id="Fill-3"></path>
            <path d="M111,14.5804461 L111,14.5003338 C111,6.80954902 116.754723,0 125.3266,0 C129.653357,0 132.469831,1.12224038 135.082213,3.0042128 C135.449579,3.284606 135.734628,3.72522388 135.734628,4.28601027 C135.734628,5.16724602 134.999895,5.8882571 134.143388,5.8882571 C133.776022,5.8882571 133.448794,5.72803241 133.122926,5.48769539 C131.082003,3.9662285 128.795489,2.92410046 125.204145,2.92410046 C118.877283,2.92410046 114.347114,8.17145883 114.347114,14.4202215 L114.347114,14.5003338 C114.347114,21.1890467 118.714009,26.1560119 125.653148,26.1560119 C128.918625,26.1560119 131.938511,24.9142706 133.897797,23.3527475 L133.897797,16.3823062 L126.224606,16.3823062 C125.449055,16.3823062 124.79596,15.7414075 124.79596,14.9810079 C124.79596,14.1792168 125.449055,13.5383181 126.224606,13.5383181 L135.40808,13.5383181 C136.265948,13.5383181 137,14.2593292 137,15.1412325 L137,23.6725293 C137,24.4335965 136.632634,25.1145514 135.898582,25.5952255 C133.2862,27.4778655 129.775812,29 125.531373,29 C116.550631,29 111,22.5910127 111,14.5804461" id="Fill-4"></path>
            <path d="M145.198243,25.7615185 L156.45843,1.37516071 C156.854916,0.511185395 157.449644,0 158.440858,0 L158.598791,0 C159.551017,0 160.185394,0.511185395 160.542231,1.37516071 L171.801757,25.7222469 C171.920703,25.9971481 172,26.2720494 172,26.507679 C172,27.3323827 171.325975,28 170.493355,28 C169.740033,28 169.225262,27.4888146 168.947723,26.8611234 L166.053379,20.538395 L150.828997,20.538395 L147.934653,26.9390121 C147.657113,27.6072839 147.141682,28 146.428009,28 C145.634377,28 145,27.3716543 145,26.5855677 C145,26.3505926 145.040309,26.0756913 145.198243,25.7615185 L145.198243,25.7615185 Z M164.823613,17.711494 L158.440858,3.65225929 L152.057441,17.711494 L164.823613,17.711494 L164.823613,17.711494 Z" id="Fill-5"></path>
            <path d="M181,1.61697732 C181,0.788112118 181.72975,0.0782196347 182.581126,0.0782196347 L183.027084,0.0782196347 C183.756834,0.0782196347 184.202793,0.433165876 184.648751,0.985304474 L201.87829,22.3609559 L201.87829,1.53810038 C201.87829,0.709235175 202.567499,0 203.459416,0 C204.310791,0 205,0.709235175 205,1.53810038 L205,26.4618996 C205,27.2901075 204.391875,27.9204657 203.540499,27.9204657 L203.378333,27.9204657 C202.689124,27.9204657 202.202624,27.5267383 201.716124,26.9745997 L184.12171,5.08690549 L184.12171,26.4618996 C184.12171,27.2901075 183.433177,28 182.540584,28 C181.689884,28 181,27.2901075 181,26.4618996 L181,1.61697732" id="Fill-6"></path>
            <path d="M85.9996296,17 C87.1109465,17 88,16.0666667 88,15 C88,13.8888889 87.1109465,13 85.9996296,13 C84.9327653,13 84,13.8888889 84,15 C84,16.0666667 84.9327653,17 85.9996296,17" id="Fill-7"></path>
            <path d="M14.9992593,17 C16.1103704,17 17,16.0666667 17,15 C17,13.8888889 16.1103704,13 14.9992593,13 C13.9325926,13 13,13.8888889 13,15 C13,16.0666667 13.9325926,17 14.9992593,17" id="Fill-8"></path>
        </g>
    </g>
</svg>