<?xml version="1.0" encoding="UTF-8"?>
<svg width="800px" height="600px" viewBox="0 0 800 600" version="1.1" xmlns="http://www.w3.org/2000/svg" xmlns:xlink="http://www.w3.org/1999/xlink">
    <!-- Generator: Sketch 52.2 (67145) - http://www.bohemiancoding.com/sketch -->
    <title>Combined Shape</title>
    <desc>Created with Sketch.</desc>
    <g id="Welcome" stroke="none" stroke-width="1" fill="none" fill-rule="evenodd">
        <g id="Artboard" fill="#000000">
            <path d="M0,0 L800,0 L800,600 L0,600 L0,0 Z M427.491928,328.620296 L528.015714,122.037043 C529.88429,118.196992 528.407252,113.56634 524.66029,111.517476 L428.584096,58.9823623 C428.575108,58.9774473 428.56611,58.9725495 428.557102,58.9676691 C424.672406,56.8628367 419.816935,58.3057011 417.712102,62.1903969 L306.659669,267.149676 L269.618777,325.944761 C261.571339,338.718477 264.270123,355.482474 275.919875,365.0852 L483.759651,536.404579 C487.212221,539.250483 491.365289,541.117655 495.785505,541.811265 C509.425712,543.951656 522.218415,534.629213 524.358806,520.989006 L535.272439,451.438996 C536.723865,442.189396 533.620326,432.808086 526.939034,426.248965 L427.491928,328.620296 Z" id="Combined-Shape"></path>
        </g>
    </g>
</svg>