<?xml version="1.0" encoding="UTF-8"?>
<svg width="800px" height="600px" viewBox="0 0 800 600" version="1.1" xmlns="http://www.w3.org/2000/svg" xmlns:xlink="http://www.w3.org/1999/xlink">
    <!-- Generator: Sketch 52.2 (67145) - http://www.bohemiancoding.com/sketch -->
    <title>Artboard</title>
    <desc>Created with Sketch.</desc>
    <g id="Artboard" stroke="none" stroke-width="1" fill="none" fill-rule="evenodd">
        <path d="M0,0 L800,0 L800,600 L0,600 L0,0 Z M304.955281,339.812314 L304.955281,98 C304.955281,91.9248678 300.030414,87 293.955281,87 L183.931842,87 C177.85671,87 172.931842,91.9248678 172.931842,98 L172.931842,322.727102 C151.736819,351.273523 157.126563,391.670335 185.328361,413.625385 L296.454741,500.137074 C325.151888,522.477752 366.512982,517.39928 388.953045,488.779781 L389.003753,488.715109 C389.05057,488.655399 389.097284,488.595609 389.143893,488.535738 C411.41246,459.93122 406.276157,418.690436 377.671639,396.42187 L304.955281,339.812314 Z M540.955281,339.812314 L540.955281,98 C540.955281,91.9248678 536.030414,87 529.955281,87 L419.931842,87 C413.85671,87 408.931842,91.9248678 408.931842,98 L408.931842,322.727102 C387.736819,351.273523 393.126563,391.670335 421.328361,413.625385 L532.454741,500.137074 C561.151888,522.477752 602.512982,517.39928 624.953045,488.779781 L625.003753,488.715109 C625.05057,488.655399 625.097284,488.595609 625.143893,488.535738 C647.41246,459.93122 642.276157,418.690436 613.671639,396.42187 L540.955281,339.812314 Z" id="Combined-Shape" fill="#000000"></path>
        <rect id="Rectangle" fill="#000000" x="167" y="105" width="153" height="9"></rect>
        <rect id="Rectangle-Copy-2" fill="#000000" x="400" y="105" width="153" height="9"></rect>
    </g>
</svg>