<?xml version="1.0" encoding="UTF-8"?>
<svg width="79px" height="76px" viewBox="0 0 79 76" version="1.1" xmlns="http://www.w3.org/2000/svg" xmlns:xlink="http://www.w3.org/1999/xlink">
    <!-- Generator: Sketch 52.2 (67145) - http://www.bohemiancoding.com/sketch -->
    <title>Artboard</title>
    <desc>Created with Sketch.</desc>
    <g id="Artboard" stroke="none" stroke-width="1" fill="none" fill-rule="evenodd">
        <g id="Imported-Layers-Copy" style="mix-blend-mode: color;" transform="translate(21.000000, 16.000000)" fill="#FFFFFF">
            <path d="M18.5,45 C18.2238491,45 18,44.7767373 18,44.5013884 L18,0.498611603 C18,0.223262733 18.2238491,0 18.5,0 C18.7761509,0 19,0.223262733 19,0.498611603 L19,44.5013884 C19,44.7767373 18.7761509,45 18.5,45" id="Fill-1"></path>
            <path d="M18.5,33 C14.342606,33 10.3727161,31.6966374 7.01954041,29.2307624 C3.74054914,26.8194806 1.322404,23.5112017 0.0265381663,19.663607 C-0.0619469081,19.4008535 0.0780586966,19.1157489 0.339172661,19.02673 C0.600414309,18.9376469 0.883809147,19.0784972 0.972230379,19.3411864 C2.20182817,22.9918605 4.49663048,26.1311577 7.60880249,28.4197656 C10.7897324,30.7589845 14.5558385,31.9954223 18.5,31.9954223 C22.4440977,31.9954223 26.2102676,30.7589845 29.3911975,28.4197656 C32.5033057,26.1312219 34.7982357,22.9918605 36.0278335,19.3411864 C36.1162547,19.0784972 36.4000326,18.9376469 36.6608273,19.02673 C36.9219413,19.1157489 37.0619469,19.4008535 36.9734618,19.663607 C35.6775322,23.5112017 33.259387,26.8194806 29.9804596,29.2307624 C26.6272839,31.6966374 22.657394,33 18.5,33" id="Fill-2"></path>
            <path d="M18.5000189,25 C15.0175857,25 11.6922292,23.8917049 8.88351021,21.7951601 C6.13698311,19.7450476 4.1115188,16.9322586 3.02601022,13.6609683 C2.93926724,13.399324 3.07655288,13.1154229 3.33271086,13.0267158 C3.58905673,12.9380726 3.86701006,13.0783283 3.95375304,13.3399087 C4.97418872,16.4151736 6.8787139,19.059758 9.46152536,20.9876505 C12.101393,22.9581378 15.2268335,23.9996627 18.5000189,23.9996627 C21.7731417,23.9996627 24.8986448,22.9581378 27.5385125,20.9876505 C30.1212613,19.059758 32.0259118,16.4151736 33.0462848,13.3399087 C33.1329652,13.0782644 33.4110438,12.9377528 33.667327,13.0267158 C33.9234223,13.1154229 34.0607706,13.399324 33.973965,13.6609683 C32.8885191,16.9322586 30.8630547,19.7450476 28.1165903,21.7951601 C25.3078086,23.8917049 21.9823896,25 18.5000189,25" id="Fill-3"></path>
            <path d="M18.5000034,18 C15.4677568,18 12.5723387,17.0850172 10.1266553,15.3540455 C7.73528214,13.6615096 5.97163565,11.3392935 5.02653556,8.63846601 C4.938082,8.38566703 5.07797392,8.11130195 5.33899488,8.02571735 C5.60027111,7.94007096 5.88343737,8.07558506 5.97182711,8.32826046 C6.85074657,10.8396896 8.49109417,12.9993258 10.7156437,14.5738353 C12.9892064,16.1830111 15.6809771,17.0334811 18.5000034,17.0334811 C21.3190298,17.0334811 24.0108004,16.1830111 26.2843632,14.5738353 C28.5089765,12.9993258 30.1493241,10.8396896 31.0281159,8.32826046 C31.1165695,8.07552327 31.4002463,7.94000917 31.6609481,8.02571735 C31.9219691,8.11130195 32.0619248,8.38566703 31.9734713,8.63846601 C31.0283074,11.3392935 29.2647885,13.6615096 26.8734153,15.3540455 C24.4277319,17.0850172 21.5321862,18 18.5000034,18" id="Fill-4"></path>
            <path d="M19.0000194,11 C14.9378094,11 11.3316482,8.44956939 10.026653,4.65358994 C9.93776645,4.39481485 10.0784446,4.11396386 10.3409326,4.02635606 C10.6036131,3.9385585 10.888435,4.07733937 10.9773215,4.33605121 C12.1442057,7.73023663 15.3682512,10.0106961 19.0000194,10.0106961 C22.6318518,10.0106961 25.8558973,7.73023663 27.0227173,4.33605121 C27.1115396,4.07727612 27.3963615,3.9385585 27.6591062,4.02635606 C27.92153,4.11396386 28.0622723,4.39481485 27.9733216,4.65358994 C26.6683906,8.44956939 23.0622936,11 19.0000194,11" id="Fill-5"></path>
            <path d="M18.9999966,5 C16.2957682,5 13.8952758,3.258849 13.0265639,0.667372952 C12.9379929,0.403180498 13.0781345,0.116379888 13.3395022,0.0268515899 C13.6009976,-0.0626767085 13.8846678,0.0789795386 13.9731749,0.343107397 C14.7043013,2.52427771 16.7244367,3.98973839 18.9999966,3.98973839 C21.2755565,3.98973839 23.2956918,2.52427771 24.0268822,0.343107397 C24.1154532,0.0789795386 24.3995068,-0.0623537349 24.6605549,0.0268515899 C24.9219225,0.116379888 25.0620002,0.403180498 24.9734292,0.667372952 C24.1047812,3.258849 21.7041611,5 18.9999966,5" id="Fill-6"></path>
        </g>
    </g>
</svg>